<svg xmlns="http://www.w3.org/2000/svg" viewBox="0 0 1333.33 1333.33" shape-rendering="geometricPrecision" text-rendering="geometricPrecision" image-rendering="optimizeQuality" fill-rule="evenodd" clip-rule="evenodd"><defs><linearGradient id="a" gradientUnits="userSpaceOnUse" x1="2498.85" y1="-6597.99" x2="2498.85" y2="-6597.98"><stop offset="0" stop-color="#911a1e"/><stop offset="1" stop-color="#d61e25"/></linearGradient></defs><path fill="url(#a)" fill-rule="nonzero" d="M0 1333.33h1333.33V0H0z"/><path d="M1048.1 413.24c-67.2-67.2-157.61-104.41-253.22-104.41-95.61 0-186.02 37.2-253.22 104.41l-7.2 7.2c-17.2-2.8-32.8-4.4-50-4.4-80.01 0-157.61 31.6-214.82 90.01-118.81 118.81-118.81 310.83 0 429.64 57.2 57.2 133.21 88.81 214.82 88.81h318.03c94.41-1.6 182.02-38.8 247.63-104.41 138.41-140.41 138.41-368.04-2-506.85zM485.25 958.89c-64.41 0-123.21-27.2-167.62-73.21-93.21-93.21-93.21-243.22 0-335.23 44.41-44.41 104.41-70.01 167.62-70.01h1.6c12.8 0 22.8 1.6 34.4 2.8 12.8 2.8 24.4 4.4 37.2 8.4 22.8 7.2 44.41 18.8 62.81 31.6 8.4 7.2 18.8 12.8 25.6 21.6l7.2 7.2 97.21 97.21c12.8 12.8 12.8 32.8 0 47.2-7.2 7.2-14.4 10-22.8 10s-17.2-2.8-22.8-10l-80.01-80.01-17.2-17.2c-2.8-2.8-5.6-4.4-7.2-7.2-22.8-20-50-32.8-80.01-38.8-10-2.8-21.6-2.8-31.6-2.8h-4.4c-44.41 1.6-84.41 18.8-116.01 50-67.2 67.2-67.2 174.82 0 242.02 32.8 32.8 74.41 50 121.61 50h30l28.8 27.2c14.4 14.4 28.8 28.8 46 38.8H485.24v.4zm516.85-86.01c-30 30-66.01 52.81-106.01 67.2-12.8 4.4-24.4 7.2-37.2 11.6-18.8 4.4-38.8 7.2-58.81 7.2h-5.6c-68.81 0-133.21-22.8-184.82-66.01-7.2-5.6-14.4-12.8-21.6-18.8L450.45 736.46c-12.8-12.8-12.8-32.8 0-47.2 7.2-7.2 14.4-10 22.8-10s17.2 2.8 22.8 10l136.01 136.01c12.8 12.8 27.2 22.8 41.6 32.8 34.4 21.6 74.41 32.8 117.21 32.8 18.8 0 38.8-2.8 56-7.2 11.6-2.8 22.8-7.2 32.8-11.6 25.6-11.6 50-27.2 71.61-48.8 87.21-87.21 87.21-230.42 0-318.03-44.41-44.41-101.61-66.01-158.81-66.01-44.41 0-87.21 12.8-126.01 38.8-18.8-14.4-38.8-27.2-61.61-37.2 54.41-44.41 121.61-67.2 187.62-67.2 74.41 0 148.81 28.8 206.02 84.41 116.81 115.61 116.81 300.43 3.6 414.84h.01zm0 0z" fill="#fff" fill-rule="nonzero"/></svg>