<?xml version="1.0" encoding="UTF-8"?>
<svg xmlns="http://www.w3.org/2000/svg" version="1.1" xmlns:xlink="http://www.w3.org/1999/xlink" viewBox="0 0 1333.3 1333.3">
  <defs>
    <style>
      .cls-1 {
        fill: #fff;
      }

      .cls-2 {
        fill: url(#linear-gradient);
        fill-rule: evenodd;
      }
    </style>
    <linearGradient id="linear-gradient" x1="0" y1="666.7" x2="1333.3" y2="666.7" gradientUnits="userSpaceOnUse">
      <stop offset="0" stop-color="#911a1e"/>
      <stop offset="1" stop-color="#d61e25"/>
    </linearGradient>
  </defs>
  <!-- Generator: Adobe Illustrator 28.6.0, SVG Export Plug-In . SVG Version: 1.2.0 Build 709)  -->
  <g>
    <g id="Layer_1" image-rendering="optimizeQuality" shape-rendering="geometricPrecision" text-rendering="geometricPrecision">
      <path class="cls-2" d="M271.3,0h790.7C1211.9,0,1333.3,122.5,1333.3,273.5v786.2c0,151.1-121.5,273.5-271.3,273.5H271.3C121.5,1333.3,0,1210.9,0,1059.8V273.5C0,122.5,121.5,0,271.3,0Z"/>
      <path class="cls-1" d="M1048.1,413.2c-67.2-67.2-157.6-104.4-253.2-104.4s-186,37.2-253.2,104.4l-7.2,7.2c-17.2-2.8-32.8-4.4-50-4.4-80,0-157.6,31.6-214.8,90-118.8,118.8-118.8,310.8,0,429.6,57.2,57.2,133.2,88.8,214.8,88.8h318c94.4-1.6,182-38.8,247.6-104.4,138.4-140.4,138.4-368-2-506.9h0ZM485.2,958.9c-64.4,0-123.2-27.2-167.6-73.2-93.2-93.2-93.2-243.2,0-335.2,44.4-44.4,104.4-70,167.6-70h1.6c12.8,0,22.8,1.6,34.4,2.8,12.8,2.8,24.4,4.4,37.2,8.4,22.8,7.2,44.4,18.8,62.8,31.6,8.4,7.2,18.8,12.8,25.6,21.6l7.2,7.2,97.2,97.2c12.8,12.8,12.8,32.8,0,47.2-7.2,7.2-14.4,10-22.8,10s-17.2-2.8-22.8-10l-80-80-17.2-17.2c-2.8-2.8-5.6-4.4-7.2-7.2-22.8-20-50-32.8-80-38.8-10-2.8-21.6-2.8-31.6-2.8h-4.4c-44.4,1.6-84.4,18.8-116,50-67.2,67.2-67.2,174.8,0,242s74.4,50,121.6,50h30l28.8,27.2c14.4,14.4,28.8,28.8,46,38.8h-110.4v.4h0ZM1002.1,872.9c-30,30-66,52.8-106,67.2-12.8,4.4-24.4,7.2-37.2,11.6-18.8,4.4-38.8,7.2-58.8,7.2h-5.6c-68.8,0-133.2-22.8-184.8-66-7.2-5.6-14.4-12.8-21.6-18.8l-137.6-137.6c-12.8-12.8-12.8-32.8,0-47.2,7.2-7.2,14.4-10,22.8-10s17.2,2.8,22.8,10l136,136c12.8,12.8,27.2,22.8,41.6,32.8,34.4,21.6,74.4,32.8,117.2,32.8s38.8-2.8,56-7.2c11.6-2.8,22.8-7.2,32.8-11.6,25.6-11.6,50-27.2,71.6-48.8,87.2-87.2,87.2-230.4,0-318-44.4-44.4-101.6-66-158.8-66s-87.2,12.8-126,38.8c-18.8-14.4-38.8-27.2-61.6-37.2,54.4-44.4,121.6-67.2,187.6-67.2s148.8,28.8,206,84.4c116.8,115.6,116.8,300.4,3.6,414.8h0Z"/>
    </g>
  </g>
</svg>