<?xml version="1.0" encoding="UTF-8"?>
<svg xmlns="http://www.w3.org/2000/svg" version="1.1" viewBox="0 0 512 512">
  <defs>
    <style>
      .cls-1 {
        fill: #cf649a;
      }
    </style>
  </defs>
  <!-- Generator: Adobe Illustrator 28.6.0, SVG Export Plug-In . SVG Version: 1.2.0 Build 709)  -->
  <g>
    <g id="Layer_1">
      <path class="cls-1" d="M241.5,354.3c-.2.5-.5.9,0,0ZM440.8,284.7c-16.1,0-32,3.7-46.4,10.8-4.7-9.5-9.6-17.8-10.4-24.1-1-7.3-2-11.6-.9-20.2s6.2-20.9,6.1-21.8c0-.9-1.1-5.3-11.4-5.4s-19.2,2-20.2,4.7c-1.8,5-3.2,10.1-4.2,15.3-1.8,9.4-20.6,42.8-31.3,60.2-3.5-6.8-6.5-12.8-7.1-17.6-1-7.3-2-11.6-.9-20.2,1.1-8.6,6.2-20.9,6.1-21.8,0-.9-1.1-5.3-11.4-5.4s-19.2,2-20.2,4.7c-1,2.7-2.2,9.1-4.2,15.3s-27.1,61.8-33.7,76.3c-3.4,7.4-6.2,13.3-8.3,17.3-.3.6-.6,1-.7,1.4.2-.4.4-.8.4-.6-1.8,3.4-2.8,5.4-2.8,5.4h0c-1.4,2.6-2.9,5-3.6,5s-1.5-6.7.2-15.9c3.8-19.4,12.6-49.4,12.6-50.5,0-.6,1.7-5.8-5.8-8.6-7.3-2.6-9.9,1.8-10.6,1.8s-1.1,1.6-1.1,1.6c0,0,8.1-33.9-15.5-33.9s-35.2,16.2-45.3,30.8c-6.3,3.4-20,10.9-34.4,18.8-5.5,3-11.2,6.2-16.6,9.1-.4-.4-.7-.8-1.1-1.2-28.6-30.6-81.5-52.2-79.3-93.2.8-15,6-54.2,101.7-101.9,78.4-39,141.1-28.3,151.9-4.5,15.5,34-33.5,97.3-114.9,106.4-31,3.4-47.3-8.6-51.4-13-4.2-4.7-4.9-5-6.5-4.1-2.6,1.4-1,5.6,0,8.1,2.4,6.3,12.4,17.5,29.4,23.1,15,4.9,51.3,7.6,95.3-9.4,49.4-19,87.9-72.1,76.6-116.5-11.5-45.1-86.3-59.9-157.1-34.8-42.2,15-87.7,38.5-120.5,69.1C4.2,181.8-2.1,213.5.5,226.8c9.1,47.1,74.1,77.8,100.1,100.6-1.3.7-2.5,1.4-3.6,2-13,6.5-62.5,32.4-74.9,59.8-14,31,2.3,53.3,13,56.3,33.4,9.3,67.7-7.4,86.1-34.9,18.4-27.4,16.2-63.3,7.7-79.6,0-.2-.2-.4-.3-.6,3.4-2,6.8-4,10.2-6,6.6-3.9,13.1-7.5,18.8-10.6-3.2,8.6-5.5,19-6.7,34.1-1.4,17.6,5.8,40.4,15.3,49.4,4.2,3.9,9.2,4,12.3,4,11,0,16-9.1,21.5-20,6.8-13.3,12.8-28.7,12.8-28.7,0,0-7.5,41.8,13,41.8s15-9.7,18.4-14.6h0c0,0,.2-.2.6-.9.8-1.2,1.2-1.9,1.2-1.9v-.2c3-5.2,9.7-17.1,19.7-36.8,13-25.4,25.4-57.2,25.4-57.2,1.2,7,2.9,13.9,5,20.6,2.2,7.6,7,15.9,10.7,24-3,4.2-4.9,6.6-4.9,6.6v.2c-2.3,3.2-5,6.6-7.8,10-10.2,12.2-22.4,26.1-24,30.1-1.9,4.7-1.4,8.2,2.2,11,2.7,2.1,7.5,2.4,12.5,2,9.2-.6,15.7-2.9,18.8-4.3,5.8-2.1,11.2-4.9,16.1-8.5,10-7.4,16.1-17.9,15.5-31.8-.3-7.7-2.8-15.4-5.8-22.6.9-1.3,1.8-2.6,2.7-4,15.8-23.1,28.1-48.5,28.1-48.5,1.2,7,2.9,13.9,5,20.6,1.9,6.5,5.7,13.6,9.1,20.6-14.9,12.1-24.1,26.1-27.3,35.3-5.9,17-1.3,24.7,7.4,26.5,3.9.8,9.5-1,13.7-2.8,6.2-2.1,12-5,17.3-8.9,10-7.4,19.7-17.7,19-31.7-.2-6.3-2-12.6-4.3-18.7,12.6-5.3,28.9-8.2,49.7-5.8,44.5,5.2,53.3,33,51.6,44.6-1.7,11.6-11,18.1-14.2,20s-4.1,2.6-3.8,4.1c.4,2.1,1.8,2,4.5,1.5,3.7-.6,23.4-9.4,24.2-31,1.3-27.2-24.9-57.1-71.2-56.9h0ZM97.4,400.5c-14.7,16.1-35.3,22.2-44.2,17-9.5-5.5-5.8-29.2,12.4-46.3,11-10.4,25.3-20,34.7-25.9,2.2-1.3,5.3-3.2,9.1-5.5.6-.4,1-.6,1-.6.7-.5,1.5-.9,2.3-1.4,6.6,24.3.2,45.8-15.3,62.6h0ZM204.9,327.4c-5.1,12.6-15.9,44.6-22.5,42.9-5.6-1.4-9-25.8-1.1-49.8,4-12.1,12.5-26.5,17.5-32.1,8.1-9,16.9-11.9,19-8.3,2.8,4.7-9.8,39.5-13,47.4h0ZM293.7,369.8c-2.2,1.1-4.2,1.8-5.1,1.3-.7-.4.9-1.9.9-1.9,0,0,11.1-11.9,15.5-17.4,2.6-3.2,5.5-7,8.7-11.1,0,.4,0,.8,0,1.3-.1,14.3-13.9,24-20.1,27.8h0ZM362.2,354.2c-1.6-1.1-1.4-4.9,4-16.6,2.1-4.6,6.9-12.2,15.2-19.6.9,2.8,1.5,5.7,1.5,8.6,0,18-13,24.7-20.7,27.5h0Z"/>
    </g>
  </g>
</svg>